<?xml version="1.0" encoding="utf-8"?>
<!-- Generator: Adobe Illustrator 16.0.0, SVG Export Plug-In . SVG Version: 6.00 Build 0)  -->
<!DOCTYPE svg PUBLIC "-//W3C//DTD SVG 1.1//EN" "http://www.w3.org/Graphics/SVG/1.1/DTD/svg11.dtd">
<svg version="1.1" id="Vrstva_1" xmlns="http://www.w3.org/2000/svg" xmlns:xlink="http://www.w3.org/1999/xlink" x="0px" y="0px"
	 width="78.57px" height="78.57px" viewBox="0 0 78.57 78.57" enable-background="new 0 0 78.57 78.57" xml:space="preserve">
<path fill="#F04C36" d="M78.57,39.286c0,21.696-17.588,39.285-39.285,39.285S0,60.981,0,39.286C0,17.589,17.589,0,39.286,0
	S78.57,17.589,78.57,39.286"/>
<path fill="#3B385A" d="M35.194,34.88c-0.272-1.815-0.363-3.725-0.363-5.541c0-3.451,1.181-5.813,5.087-5.813
	c1.544,0,3.36,0.816,4.451,1.907c0.273,3.272,0.637,6.724,0.364,9.903c0.181-1.182,9.174-0.908,10.627-0.908
	c0.636,1.542,0.909,3.995,0.909,5.723c0,1.455-0.092,4.359-1.999,4.723c-2.816,0.544-5.905,0.544-8.812,0.544
	c0.183,2.544,0.183,5.361,0.183,7.902c0,3.815-1.818,2.908-4.542,3.272c-0.908,0.091-1.817,0.453-2.725,0.453
	c-3.543,0-2.544-8.358-2.544-10.81v-0.728h-4.45c-2.091,0-4.18,0.091-6.269,0.364c0-2.18-0.272-4.268-0.272-6.451
	C24.839,33.699,31.197,35.062,35.194,34.88"/>
</svg>
