<?xml version="1.0" encoding="utf-8"?>
<!-- Generator: Adobe Illustrator 16.0.0, SVG Export Plug-In . SVG Version: 6.00 Build 0)  -->
<!DOCTYPE svg PUBLIC "-//W3C//DTD SVG 1.1//EN" "http://www.w3.org/Graphics/SVG/1.1/DTD/svg11.dtd">
<svg version="1.1" id="Vrstva_1" xmlns="http://www.w3.org/2000/svg" xmlns:xlink="http://www.w3.org/1999/xlink" x="0px" y="0px"
	 width="78.57px" height="78.57px" viewBox="0 0 78.57 78.57" enable-background="new 0 0 78.57 78.57" xml:space="preserve">
<path fill="#FFCC30" d="M78.57,39.286c0,21.696-17.589,39.285-39.285,39.285C17.588,78.571,0,60.982,0,39.286
	C0,17.589,17.588,0,39.285,0C60.981,0,78.57,17.589,78.57,39.286"/>
<path fill="#3B385A" d="M35.194,34.88c-0.272-1.814-0.363-3.725-0.363-5.541c0-3.45,1.182-5.813,5.087-5.813
	c1.544,0,3.36,0.815,4.45,1.907c0.273,3.271,0.637,6.724,0.364,9.902c0.181-1.182,9.175-0.908,10.628-0.908
	c0.636,1.542,0.909,3.995,0.909,5.724c0,1.455-0.092,4.358-2,4.723c-2.815,0.544-5.904,0.544-8.813,0.544
	c0.184,2.544,0.184,5.361,0.184,7.902c0,3.814-1.817,2.908-4.542,3.271c-0.908,0.092-1.817,0.453-2.726,0.453
	c-3.543,0-2.544-8.357-2.544-10.81v-0.729h-4.451c-2.09,0-4.179,0.092-6.269,0.364c0-2.18-0.272-4.268-0.272-6.451
	C24.838,33.699,31.197,35.062,35.194,34.88"/>
</svg>
