<?xml version="1.0" encoding="utf-8"?>
<!-- Generator: Adobe Illustrator 16.0.0, SVG Export Plug-In . SVG Version: 6.00 Build 0)  -->
<!DOCTYPE svg PUBLIC "-//W3C//DTD SVG 1.1//EN" "http://www.w3.org/Graphics/SVG/1.1/DTD/svg11.dtd">
<svg version="1.1" id="Vrstva_1" xmlns="http://www.w3.org/2000/svg" xmlns:xlink="http://www.w3.org/1999/xlink" x="0px" y="0px"
	 width="130.138px" height="93.801px" viewBox="3.017 15.777 130.138 93.801" enable-background="new 3.017 15.777 130.138 93.801"
	 xml:space="preserve">
<polygon fill="#FFCB2D" points="106.076,15.777 51.92,15.777 24.842,62.678 51.92,109.578 106.076,109.578 133.155,62.678 "/>
<path fill="#3A3759" d="M47.884,34.459c-0.228,0-0.481,0.076-0.734,0.076c-0.405,0-0.761-0.177-1.039-0.482
	c0.051-0.38-0.025-0.709-0.025-1.09c0-0.228,0.051-0.456,0.126-0.659c0.076-0.253,0.203-0.406,0.457-0.481h-0.025
	c0.228-0.076,0.456-0.126,0.684-0.126c0.659,0,1.318,0.126,1.952,0.126c1.014,0,2.027-0.051,3.041-0.051
	c0.558,0,1.09-0.177,1.597-0.177c0.558,0,0.583,0.709,0.583,1.115c0,2.129-0.507,1.673-2.356,1.951
	c-0.152,2.915-0.152,5.83-0.229,8.744c-0.025,1.014-0.102,2.027-0.102,3.042c0,0.608,0.051,1.217,0.051,1.824
	c0,0.635-0.051,1.242-0.076,1.876c-0.025,0.786-0.025,1.597-0.076,2.382c-0.329,0.051-0.633,0.076-0.963,0.076
	c-0.608,0-1.242-0.127-1.85-0.127c-0.051-0.354-0.076-0.734-0.076-1.09c0-0.836,0.126-1.672,0.126-2.508
	c0-0.406-0.024-0.812-0.024-1.217c0.253-4.334,0.101-5.272,0.101-6.159c0-2.332-0.278-4.714-0.076-7.046H47.884z M64.006,52.276
	c-0.684-1.343-1.014-3.726-1.293-5.221c-0.709,0.152-1.596,0.254-2.307,0.254l-0.582,2.687v-0.025
	c-0.254,0.912-0.305,1.697-0.785,2.559c-0.813,0.076-1.598,0.076-2.408,0.076c0.076-1.57,0.582-3.117,0.887-4.663
	c0.609-3.193,1.217-6.361,2.002-9.53c0.381-1.521,1.09-4.105,1.141-5.601c0.406-0.025,0.785-0.126,1.191-0.126
	c0.178,0,0.355,0.025,0.533,0.076c0.709,0.202,0.734,0.861,0.836,1.47c0.887,4.993,1.369,10.163,2.762,15.054l-0.025-0.025
	c0.254,0.862,0.584,1.902,0.584,2.84v0.304c-0.609,0-1.191,0.05-1.801,0.05h-0.43L64.006,52.276z M61.496,41.277
	c-0.277,1.09-0.506,2.205-0.633,3.32l1.42-0.254c-0.152-1.292-0.609-2.636-0.609-3.979c-0.051,0.329-0.127,0.659-0.203,0.938
	L61.496,41.277z M75.567,37.424c-0.557-0.228-0.355-3.041-2.484-1.977c-0.633,0.278-0.938,1.039-0.938,1.723
	c0,3.498,7.174,6.362,6.615,10.923c-0.404,3.346-2.205,3.727-3.143,4.133h-0.025c-0.709,0.277-1.293,0.379-2.053,0.379
	c-1.242,0-2.535-0.836-3.32-1.748c-0.178-0.203-0.305-0.482-0.48-0.71c-0.406-0.558-0.965-1.317-0.965-2.028
	c0-0.201,0.051-0.404,0.178-0.582h-0.025c0.33-0.558,1.648-0.558,2.23-0.558c0.635,0,0.811,0.685,0.963,1.19v-0.025
	c0.33,0.711,0.711,1.242,1.572,1.242c0.912,0,1.697-0.404,1.697-1.394c0-1.521-1.293-2.712-2.256-3.751
	c-0.633-0.684-1.24-1.47-1.748-2.281h0.025c-0.582-0.812-1.318-1.647-1.672-2.585v0.025c-0.355-0.786-0.559-1.647-0.559-2.509
	c0-2.458,1.9-4.461,4.385-4.461c1.547,0,3.193,0.761,4.004,2.129l-0.025-0.025c0.381,0.558,0.813,1.394,0.813,2.078
	c0,1.09-0.914,0.963-1.699,0.963C76.301,37.577,75.922,37.551,75.567,37.424z M82.793,51.719c-0.051-0.102-0.051-0.203-0.051-0.33
	c0-3.725,0.305-7.476,0.305-11.227c0-1.85-0.025-3.726-0.102-5.576c-0.658,0-1.293,0.076-1.951,0.076
	c0.051-0.659-0.102-1.267-0.102-1.9c0-0.279,0.203-0.431,0.455-0.507c0.609-0.178,1.268-0.051,1.877-0.051
	c1.748,0,3.521,0,5.271-0.051c0.178,0.709,0.279,1.419,0.279,2.154c-0.609,0.481-1.191,0.354-1.928,0.354h-1.039
	c-0.051,0.229-0.076,0.456-0.076,0.685c0,0.481,0.051,0.938,0.051,1.419c0,2.205-0.176,4.436-0.176,6.666
	c0,5.778,0.861,8.313-0.178,9.047c-0.254,0.178-1.445,0.127-1.725,0.127c-0.277,0-0.607-0.152-0.811-0.304
	C82.844,52.125,82.793,51.922,82.793,51.719z M99.067,49.641c0.254,0.457,0.254,1.014,0.254,1.521c0,0.455,0.025,0.887,0.076,1.342
	c-1.064,0.102-2.129,0.127-3.193,0.127c-0.557,0-4.334-0.051-4.664-0.228c-0.506-1.141-0.531-3.22-0.531-4.485
	c0-3.372-0.127-6.768-0.127-10.139c0-1.774,0.025-3.548,0.025-5.323c0.482-0.481,1.09-0.507,1.723-0.507
	c1.471,0,2.941-0.126,4.385-0.126c0.635,0,1.293,0.076,1.852,0.38c0.051,0.583,0.025,1.242,0.176,1.799
	c0.025,0.126,0.051,0.253,0.051,0.406c0,0.684-0.684,0.684-1.189,0.684c-1.344,0-2.688,0.05-4.006,0.152
	c0,1.952-0.305,3.878-0.305,5.829c0,0.152,0,0.305,0.025,0.457c0.965-0.101,1.953-0.253,2.941-0.253
	c0.354,0,0.709,0.051,1.064,0.076c0.127,0.38,0.48,1.926,0.48,2.332c0,0.177-0.051,0.355-0.201,0.457
	c-0.482,0.304-3.447,0.253-4.209,0.304v0.279c0,0.76,0.127,1.521,0.152,2.281c0.025,0.736,0,1.47,0.178,2.205
	c1.166,0.178,2.332,0.203,3.498,0.203C98.002,49.412,98.688,49.285,99.067,49.641z M110.78,52.453
	c-0.557,0.102-1.141,0.152-1.697,0.152h-0.254c-0.887-0.404-0.658-1.242-0.609-2.002c0.229-4.131-1.088-4.587-1.596-4.739
	c-0.305-0.101-1.723-0.076-2.129-0.076c0,1.8,0.102,3.573,0.102,5.374c0,0.455-0.051,0.938-0.229,1.342
	c-0.355,0-0.734,0.025-1.09,0.051c-0.178,0.025-0.305,0.102-0.457,0.102c-0.252,0-0.48-0.051-0.734-0.076
	c-0.43-0.734-0.404-14.978-0.557-17.563v0.025c-0.051-0.481-0.076-0.938-0.076-1.419c0-1.191,0.43-1.394,1.57-1.394
	c1.496,0,4.207,0.025,5.475,0.887c1.572,1.064,2.027,3.675,2.027,5.449c0,0.583-0.025,1.166-0.025,1.749
	c0,1.394,0.102,3.041-1.215,3.928h0.049c1.395,0.963,1.979,4.664,1.979,6.285c0,0.559-0.076,1.141-0.229,1.674L110.78,52.453z
	 M106.369,35.093c-0.506-0.102-1.09-0.076-1.596-0.076c-0.152,0-0.279,0-0.406,0.025c0.229,2.509-0.076,5.069,0.229,7.578h0.33
	c2.559,0,2.939-1.039,2.939-3.371C107.865,38.058,107.891,35.422,106.369,35.093z"/>
<path fill="#3A3759" d="M49.302,74.814c0,0.305-0.178,0.559-0.354,0.787c-0.938,1.342-2.18,2.914-3.979,2.914
	c-1.242,0-2.509-0.533-3.396-1.395c-1.368-1.318-1.622-2.965-1.622-4.789c0-1.318,0.076-2.611,0.076-3.93
	c0-3.396-0.051-9.91,4.613-10.238h0.177c2.054,0,4.563,1.977,4.537,4.131c-0.71,0.279-1.47,0.709-2.256,0.709
	c-0.151,0-0.304,0-0.456-0.025c-0.481-0.734-0.532-1.926-1.673-1.926c-0.253,0-0.481,0.127-0.685,0.279
	c-1.115,0.912-1.241,2.509-1.292,3.852c-0.076,2.281-0.102,4.563-0.102,6.844c0,1.141,0.178,3.624,1.8,3.624
	c1.267,0,0.963-1.825,2.382-1.825C47.679,73.826,49.302,74.004,49.302,74.814z M54.957,60.546c0,1.267-0.025,2.56-0.152,3.827
	c-0.076,0.709-0.153,1.445-0.153,2.154c0,2.002-0.151,4.004-0.151,6.006c0,0.889,0.025,1.775,0.101,2.662
	c0.557,0.152,1.167,0.102,1.749,0.102c0.559,0,1.115,0.025,1.648,0.127c0.229,0.354,0.355,0.76,0.355,1.166
	c0,0.48-0.102,0.963-0.051,1.443c-2.055,1.039-5.982-0.328-6.514,0.254c-0.152-0.305-0.254-0.607-0.254-0.938
	c0-3.371,0.178-6.768,0.229-10.139c0.025-1.646,0.202-3.295,0.202-4.941c0-0.583-0.177-1.141-0.177-1.698
	c0-0.71-0.076-1.444,0.354-2.054c0.659-0.126,1.394,0.051,2.002-0.126c-0.025-0.025,0.051-0.051,0.127-0.051
	C54.983,58.341,54.957,60.09,54.957,60.546z M70.065,75.955c0.229,0.761,0.582,1.344,0.658,2.154
	c-0.557,0.635-2.027,0.406-2.813,0.432c-0.635-1.674-1.039-3.422-1.344-5.17c-0.557-0.025-1.115-0.127-1.697-0.127
	c-0.254,0-0.508,0.025-0.762,0.051c-0.227,1.039-0.76,2.838-0.836,3.877c-0.025,0.432-0.051,0.76-0.379,1.09
	c-0.457,0.102-0.914,0.152-1.369,0.152c-0.785,0-1.039-0.127-1.039-0.988c0-0.836,0.303-1.724,0.506-2.535
	c0.559-2.205,1.064-4.41,1.547-6.615c0.684-3.193,1.141-6.412,1.9-9.605c0.33-0.102,0.684-0.152,1.039-0.152
	c0.432,0,0.861,0.051,1.293,0.152c0.432,1.648,0.457,3.422,0.709,5.12c0.33,2.054,0.813,4.03,1.242,6.058
	c0.432,2.027,0.836,4.105,1.369,6.107H70.065z M65.528,70.455c0.178,0,0.33,0,0.508-0.025c-0.203-0.938-0.482-2.053-0.482-3.016
	c0-0.102-0.051-0.279-0.076-0.405c-0.203,1.141-0.506,2.28-0.684,3.421C65.047,70.455,65.274,70.455,65.528,70.455z M81.321,63.714
	c-0.254,0-0.48-0.05-0.684-0.177h0.025c-0.988-0.635-0.305-1.927-2.053-2.205h-0.229c-1.115,0-2.484,0.811-2.484,2.027
	c0,2.281,2.99,3.624,4.359,5.043c0.887,0.912,1.824,2.357,2.23,3.574c0.229,0.658,0.33,1.445,0.33,2.129
	c0,1.646-1.242,3.7-2.865,4.207c-0.557,0.178-1.291,0.229-1.875,0.229c-1.344,0-2.787-0.33-3.775-1.318h0.025
	c-0.711-0.684-1.242-2.104-1.242-3.092c0-0.734,0.938-0.659,1.469-0.659c0.432,0,0.838,0.051,1.268,0.076
	c0.127,0.38,0.102,0.685,0.178,1.039c0.178,0.685,1.445,1.267,2.078,1.267c0.887,0,1.725-0.709,1.725-1.621
	c0-0.508-0.178-0.963-0.355-1.42c-1.623-4.258-5.957-4.41-6.539-8.871c-0.025-0.101-0.025-0.228-0.025-0.328
	c0-2.865,2.51-5.196,5.322-5.196c0.887,0,1.648,0.177,2.434,0.558c1.723,0.836,2.609,2.561,2.584,4.41L81.321,63.714z
	 M95.264,72.281c0.076,0.328,0.102,0.684,0.102,1.014c0,1.115-0.279,2.686-1.014,3.547c-1.014,1.191-2.611,1.75-4.131,1.75
	c-2.307,0-4.664-1.977-4.664-4.385c0-1.191,0.861-1.242,1.799-1.242c0.482,0,0.938,0.127,1.369,0.355
	c-0.051,0.988,0.559,2.281,1.697,2.281c1.064,0,1.826-0.813,1.826-1.852c0-1.951-2.814-4.511-4.207-5.677l0.025,0.025
	c-1.826-1.495-2.688-2.585-2.688-5.044c0-2.863,2.027-4.967,4.943-4.967c1.367,0,3.143,0.709,3.775,2.027l-0.025-0.025
	c0.33,0.684,0.887,1.697,0.887,2.459c0,0.912-1.367,1.064-2.053,1.064c-0.33,0-0.684-0.025-0.938-0.229
	c-0.508-0.457-0.051-1.242-0.912-1.875c-0.355-0.254-0.785-0.482-1.242-0.482c-0.33,0-0.734,0.33-0.938,0.558h0.025
	c-0.432,0.507-0.709,1.141-0.709,1.8c0,0.152,0.023,0.305,0.049,0.456c0.381,1.978,6.186,4.866,7.021,8.466V72.281z M105.026,60.191
	c-0.152,0.43-0.406,0.557-0.838,0.557c-0.963,0-1.9-0.102-2.838-0.102c-0.305,0-0.633,0-0.938,0.051v0.254
	c0,0.608,0.076,1.217,0.076,1.85c0,1.015-0.025,2.028-0.025,3.043c0,0.531,0,1.09,0.051,1.621c0.684-0.102,1.342-0.254,2.027-0.254
	c0.203,0,0.379,0,0.582,0.025c0.254,0.33,0.381,1.064,0.381,1.471c0,1.748-1.191,1.546-2.561,1.546c-0.152,0-0.303,0-0.455,0.076
	c-0.051,0.862-0.076,1.724-0.076,2.585c0,0.76,0,1.496,0.051,2.256c0.963,0.229,2.104,0.076,3.092,0.076
	c0.506,0,1.09,0.076,1.217,0.658l-0.025-0.025c0.076,0.229,0.102,0.457,0.102,0.711c0,0.277-0.051,0.607-0.127,0.887
	c-0.406,1.444-3.295,0.963-4.436,0.963c-0.457,0-0.912,0.076-1.369,0.076c-0.43,0-0.887-0.102-1.268-0.305
	c-0.252-0.431-0.328-0.912-0.328-1.394c0-0.507,0.102-1.04,0.102-1.546c0-3.701,0.076-7.4,0.076-11.102
	c0-0.836,0.049-1.748-0.025-2.56c-0.076-0.735-0.178-1.444-0.178-2.18c0-0.659,0.178-1.19,0.861-1.394h-0.025
	c0.734-0.254,1.57-0.152,2.332-0.152c0.836,0,1.672-0.102,2.508-0.102c0.686,0,1.369,0.051,2.055,0.178
	c0.176,0.254,0.252,0.582,0.252,0.912c0,0.457-0.127,0.912-0.252,1.344V60.191z M114.227,63.334
	c-0.557-0.229-0.354-3.041-2.482-1.977c-0.635,0.278-0.938,1.039-0.938,1.723c0,3.498,7.172,6.361,6.613,10.924
	c-0.404,3.346-2.203,3.727-3.143,4.131h-0.025c-0.709,0.279-1.291,0.381-2.053,0.381c-1.242,0-2.533-0.836-3.32-1.749
	c-0.176-0.202-0.303-0.481-0.48-0.71c-0.406-0.557-0.963-1.318-0.963-2.027c0-0.203,0.051-0.406,0.178-0.583h-0.025
	c0.328-0.558,1.646-0.558,2.23-0.558c0.633,0,0.811,0.685,0.963,1.191v-0.025c0.328,0.709,0.709,1.242,1.57,1.242
	c0.912,0,1.699-0.406,1.699-1.395c0-1.521-1.293-2.711-2.256-3.75c-0.635-0.686-1.242-1.471-1.75-2.281h0.025
	c-0.582-0.812-1.316-1.648-1.672-2.586v0.025c-0.355-0.785-0.559-1.646-0.559-2.51c0-2.457,1.902-4.46,4.385-4.46
	c1.547,0,3.193,0.761,4.006,2.129l-0.025-0.024c0.379,0.557,0.811,1.393,0.811,2.078c0,1.09-0.912,0.963-1.699,0.963
	C114.963,63.486,114.582,63.461,114.227,63.334z"/>
<path fill="#3A3759" d="M60.961,97.581c0,0.323-0.133,0.589-0.322,0.836c-0.57-0.019-1.197,0.075-1.691-0.228
	c-0.246-0.932-0.684-2.755-0.76-3.666c-0.342-0.02-0.664-0.039-1.006-0.039c-0.266,0-0.551,0-0.816,0.039
	c-0.152,0.342-0.609,2.373-0.646,2.791c-0.039,0.438-0.115,0.742-0.438,1.064c-0.17,0.02-0.342,0.02-0.494,0.02
	c-0.379,0-0.835-0.02-1.197-0.152c-0.019-0.171-0.019-0.322-0.019-0.494c0-0.816,0.209-1.615,0.475-2.375v0.02
	c0.133-0.398,0.247-0.816,0.323-1.216l1.007-5.167c0.285-1.482,0.74-3.762,1.215-5.168c0.133-0.379,0.324-0.531,0.723-0.531
	c0.246,0,0.475,0.076,0.684,0.076c0.113,0,0.209,0,0.322-0.02c0.418,0.646,0.609,2.869,1.863,10.145v-0.02
	C60.43,94.447,60.961,96.67,60.961,97.581z M57.865,92.471c-0.057-0.855-0.113-1.709-0.229-2.564
	c-0.02-0.229-0.037-0.514-0.133-0.723c0-0.018-0.02-0.094-0.057-0.075l-0.664,3.419C57.143,92.527,57.504,92.471,57.865,92.471z
	 M63.073,97.088c-0.02-0.76,0.113-13.09,0.266-13.793c0.512-0.095,1.006-0.076,1.52-0.076c0.494,0,1.008-0.094,1.5-0.094
	c0.932,0,2.014,0.151,2.527,1.025c0.607,1.045,0.684,3.324,0.684,4.598c0,0.551-0.113,1.121-0.113,1.672
	c0,1.215-0.076,2.432-0.076,3.666c0,4.16-2.053,4.369-6.098,4.198C63.166,97.941,63.073,97.486,63.073,97.088z M66.852,85.441
	c-0.303-0.151-0.684-0.228-1.025-0.228h-0.096c0,0.456,0,0.894-0.057,1.329c-0.133,1.103-0.076,2.281-0.094,3.401
	c-0.039,1.919-0.076,3.837-0.076,5.774v0.248l0.037-0.039c0.229,0.058,0.475,0.115,0.703,0.115c0.361,0,0.723-0.076,0.969-0.361
	c0.475-0.514,0.248-5.262,0.322-6.289c0.039-0.531,0.096-1.063,0.096-1.596C67.631,86.886,67.461,86.145,66.852,85.441z
	 M72.971,83.391c1.102,0,3.381,0.246,4.16,1.063c0.664,0.702,0.723,1.899,0.723,2.812c0.018,1.994,0.113,3.971,0.113,5.965
	c0,2.471-0.59,4.75-3.4,5.072c-0.494,0.057-0.969,0.039-1.463,0.096h0.02c-0.285,0.037-0.551,0.037-0.836,0.037
	c-0.342,0-0.703-0.019-1.045-0.076c-0.076-0.531-0.059-1.082-0.059-1.633c0-2.053,0.02-11.969,0.533-13.184
	C72.135,83.467,72.553,83.391,72.971,83.391z M75.764,90.457c0-0.229,0.057-4.313-0.209-4.559c-0.115-0.115-0.477-0.229-0.627-0.267
	l0.018,0.019c-0.246-0.057-0.512-0.094-0.777-0.094c-0.209,0-0.4,0.018-0.609,0.037c-0.285,3.457-0.322,6.915-0.322,10.392
	c0,0.114,0.02,0.247,0.057,0.36c0.381-0.057,1.957-0.133,2.166-0.379c0.342-0.418,0.361-2.945,0.361-3.609
	C75.821,91.73,75.764,91.084,75.764,90.457z M85.623,90.78l0.039,0.019c0.664,0,0.531,1.293,0.531,1.748
	c0,0.305-0.02,0.627-0.398,0.627c-0.152,0-0.305,0-0.457-0.02c-0.094-0.076-3.799-0.228-4.463-0.228
	c-0.248,0-0.551,0.058-0.723,0.058c-0.076,0-0.152-0.02-0.229-0.039h0.057c-0.303-0.133-0.398-0.228-0.398-0.588v-1.121
	c0-0.323,0.115-0.551,0.475-0.551c0.418,0,0.818,0.037,1.236,0.037c0.512,0,3.951-0.113,4.369,0.058H85.623z M94.895,95.055
	c0,0.76-0.057,1.709-0.664,2.26h0.02l-0.096,0.058c-1.025,0.722-1.025,1.063-2.508,1.063c-0.475,0-1.254-0.094-1.652-0.398
	c-0.096-0.076-0.189-0.133-0.305-0.189h0.02c-0.133-0.058-0.266-0.133-0.379-0.229l0.037,0.02c-0.418-0.324-0.646-0.76-0.836-1.235
	l0.02,0.019l-0.057-0.152c-0.627-1.596-0.686-4.615-0.686-6.4c0-1.236-0.133-2.945,0.361-4.123c0.646-1.539,1.957-2.412,3.609-2.412
	c0.836,0,1.711,0.645,2.242,1.234h-0.02c0.855,0.76,0.951,2.242,0.951,3.305C94.953,90.268,94.895,92.66,94.895,95.055z
	 M90.983,95.967c0.229,0.189,0.588,0.246,0.873,0.246c0.229,0,0.533-0.019,0.627-0.266c0.229-0.589,0.514-3.838,0.514-4.598
	c0-0.703-0.057-1.405-0.057-2.107c0-0.457,0.037-0.894,0.037-1.35c0-0.873-0.152-2.127-1.291-2.127
	c-0.324,0-0.666,0.113-0.912,0.322c-0.039,0.113-0.076,0.229-0.133,0.342v-0.02c-0.457,1.35-0.494,2.869-0.494,4.294
	c0,0.854,0.076,1.69,0.094,2.526c0.02,0.836,0.076,2.146,0.742,2.755V95.967z M99.912,86.525c0.59,1.709,1.217,3.438,1.729,5.166
	c0-1.898,0.152-3.779,0.152-5.68c0-0.38-0.057-0.779-0.057-1.158c0-0.457,0.076-0.893,0.229-1.33
	c0.227-0.038,0.436-0.057,0.664-0.057c0.398,0,0.797,0.076,1.215,0.076c0.076,0.493,0.152,1.006,0.152,1.52
	c0,0.778-0.076,1.557-0.076,2.336c0,0.627,0,1.254-0.018,1.881v-0.02c-0.02,0.551-0.039,1.103-0.039,1.653
	c0,1.196,0,2.432,0.057,3.628c0.039,0.685,0.115,1.35,0.115,2.033c0,0.551-0.076,1.083-0.209,1.615
	c-0.285,0.095-1.084,0.152-1.387,0.152c-0.172,0-0.684-0.039-0.76-0.248c-0.875-2.488-1.768-5.033-2.813-7.447
	c-0.057,1.996-0.113,4.01-0.113,6.004c0,0.38,0.094,0.779,0.094,1.158c0,0.172,0,0.324-0.018,0.476
	c-0.209,0.095-0.57,0.114-0.799,0.114c-0.17,0-0.779-0.02-0.912-0.114c-0.227-0.151-0.246-0.36-0.246-0.627
	c0-4.331-0.305-8.663-0.305-12.994c0-0.228,0.039-0.493,0.209-0.665v0.02c1.502-0.475,1.596-0.494,1.691-0.494
	c0.152,0,0.285,0.057,0.418,0.152C99.305,84.473,99.608,85.65,99.912,86.525z M101.66,92.869c-0.02,0-0.02,0-0.02,0.02
	L101.66,92.869z"/>
<path fill="#AC9696" d="M35.231,62.678c0,8.896-7.211,16.106-16.105,16.106c-8.896,0-16.108-7.211-16.108-16.106
	s7.212-16.107,16.108-16.107C28.02,46.571,35.231,53.782,35.231,62.678"/>
<path fill="#FFCB2D" d="M16.422,60.635c-0.137-0.915-0.183-1.877-0.183-2.792c0-1.74,0.595-2.932,2.563-2.932
	c0.778,0,1.694,0.412,2.244,0.961c0.138,1.65,0.32,3.391,0.184,4.992c0.091-0.596,4.624-0.457,5.356-0.457
	c0.32,0.777,0.458,2.014,0.458,2.885c0,0.732-0.046,2.197-1.007,2.381c-1.42,0.273-2.977,0.273-4.442,0.273
	c0.092,1.283,0.092,2.703,0.092,3.984c0,1.924-0.916,1.465-2.289,1.648c-0.458,0.047-0.916,0.229-1.374,0.229
	c-1.785,0-1.282-4.213-1.282-5.447v-0.367h-2.243c-1.054,0-2.106,0.045-3.16,0.184c0-1.1-0.137-2.152-0.137-3.252
	C11.202,60.04,14.407,60.728,16.422,60.635"/>
</svg>
