<?xml version="1.0" encoding="utf-8"?>
<!-- Generator: Adobe Illustrator 16.0.0, SVG Export Plug-In . SVG Version: 6.00 Build 0)  -->
<!DOCTYPE svg PUBLIC "-//W3C//DTD SVG 1.1//EN" "http://www.w3.org/Graphics/SVG/1.1/DTD/svg11.dtd">
<svg version="1.1" id="Vrstva_1" xmlns="http://www.w3.org/2000/svg" xmlns:xlink="http://www.w3.org/1999/xlink" x="0px" y="0px"
	 width="113.014px" height="93.25px" viewBox="0 0 113.014 93.25" enable-background="new 0 0 113.014 93.25" xml:space="preserve">
<polygon fill="#61C8DA" points="84.76,0 28.253,0 0,46.625 28.253,93.25 84.76,93.25 113.014,46.625 "/>
<g enable-background="new    ">
	<path fill="#3A3759" d="M24.909,42.704c0,1.658-0.071,3.316-0.141,4.975c-0.036,0.74-0.282,1.094-1.094,1.094
		c-1.058,0-2.716,0.211-2.716-1.235c0-0.388,0.105-0.775,0.105-1.164c0-0.635,0-1.305,0.036-1.94c0.106-3.033,0-6.067,0.176-9.102
		c0.141-2.47,0.212-4.938,0.212-7.443c0-1.588-0.071-3.176-0.071-4.763c0-0.388,0-0.812,0.071-1.164
		c0.176-0.882,1.058-0.917,1.799-1.023c1.059-0.141,2.152-0.212,3.21-0.212c6.103,0,7.021,4.128,7.021,9.208
		c0,2.787,0.353,7.338-2.858,8.502C29.777,38.753,28.754,39,27.802,39c-0.988,0-1.94-0.177-2.928-0.177
		C24.768,40.129,24.909,41.435,24.909,42.704z M29.53,26.829c0-0.529,0-1.094-0.423-1.481h0.035c-0.741-0.6-1.905-0.776-2.822-0.776
		c-0.459,0-0.953,0.07-1.411,0.141c0.105,3.599,0.035,7.197,0.035,10.761h0.388c0.776,0,2.434,0.035,3.104-0.317
		c1.129-0.601,1.411-3.634,1.411-4.763C29.848,29.192,29.53,28.028,29.53,26.829z"/>
</g>
<path fill="#3A3759" d="M43.926,48.385c-0.952-1.871-1.411-5.188-1.8-7.269c-0.987,0.212-2.224,0.353-3.21,0.353l-0.813,3.74v-0.035
	c-0.353,1.269-0.423,2.363-1.094,3.562c-1.129,0.105-2.223,0.105-3.352,0.105c0.105-2.187,0.813-4.338,1.234-6.49
	c0.848-4.445,1.693-8.855,2.787-13.265c0.528-2.117,1.517-5.715,1.587-7.796c0.564-0.035,1.094-0.177,1.658-0.177
	c0.247,0,0.494,0.036,0.741,0.106c0.986,0.282,1.021,1.2,1.164,2.046c1.234,6.95,1.904,14.146,3.845,20.955l-0.035-0.035
	c0.354,1.199,0.813,2.646,0.813,3.951v0.424c-0.849,0-1.658,0.07-2.507,0.07h-0.6L43.926,48.385z M40.433,33.072
	c-0.388,1.518-0.705,3.07-0.881,4.622l1.975-0.353c-0.211-1.799-0.846-3.669-0.846-5.539c-0.071,0.459-0.177,0.918-0.283,1.306
	L40.433,33.072z M59.981,47.713c0-2.151,0.105-7.443-2.575-8.007c-0.705-0.141-1.518-0.211-2.223-0.211
	c-0.247,0-0.741-0.071-0.741,0.281c0,0.741-0.142,1.447-0.142,2.152c0,1.588,0.248,3.14,0.248,4.691c0,0.603-0.07,1.308-0.424,1.802
	c-1.164,0.246-4.445,0.141-3.775-0.213l-0.035-0.494c0-0.246,0.035-0.529,0.035-0.775l-0.387-11.783
	c-0.036-0.988-0.106-1.94-0.106-2.928c0-3.775,0.07-7.55,0.317-11.325c0.07-0.6,0.282-0.741,0.74-0.847l-0.035,0.035
	c2.61-0.141,6.703,0.036,8.148,0.494c2.224,0.706,3.316,2.963,3.316,5.186c0,2.328,0.106,4.621,0.106,6.95
	c0,1.799,0.211,3.315-1.023,4.762c1.623,2.188,2.752,5.327,2.752,8.079c0,0.67-0.071,2.258-0.636,2.715
	C62.414,48.736,60.827,48.736,59.981,47.713z M57.865,34.556c0.492-0.635,0.67-3.458,0.67-4.304c0-1.199-0.035-3.704-0.564-4.798
	v0.036c-0.776-1.341-2.435-1.2-3.74-1.341c-1.059-0.141-0.28,3.069-0.28,4.657c0,1.411,0,2.823,0.069,4.233v-0.035
	c0.07,0.494,0.035,1.023,0.035,1.518c0,0.282,0,0.6,0.07,0.882c0.705,0,1.376,0.07,2.082,0.07
	C56.664,35.473,57.581,34.907,57.865,34.556z"/>
<path fill="#3A3759" d="M69.12,47.607c-0.07-0.141-0.07-0.281-0.07-0.459c0-5.185,0.423-10.406,0.423-15.627
	c0-2.575-0.035-5.186-0.141-7.761c-0.917,0-1.799,0.106-2.717,0.106c0.07-0.917-0.142-1.764-0.142-2.646
	c0-0.388,0.282-0.6,0.635-0.706c0.848-0.247,1.765-0.07,2.61-0.07c2.435,0,4.904,0,7.338-0.071c0.247,0.988,0.389,1.976,0.389,2.999
	c-0.847,0.67-1.657,0.494-2.682,0.494h-1.446c-0.069,0.317-0.104,0.635-0.104,0.953c0,0.67,0.07,1.305,0.07,1.976
	c0,3.069-0.247,6.173-0.247,9.278c0,8.044,1.198,11.571-0.247,12.595c-0.354,0.248-2.012,0.176-2.398,0.176
	c-0.389,0-0.847-0.211-1.129-0.422C69.191,48.172,69.12,47.891,69.12,47.607z"/>
<g enable-background="new    ">
	<path fill="#3A3759" d="M87.115,48.313c-0.176,0.212-0.353,0.282-0.635,0.282c-0.212,0-0.459-0.07-0.67-0.07
		c-0.035,0-0.212,0.07-0.248,0.07v-0.035c-0.246,0.07-0.493,0.105-0.74,0.105c-0.141,0-0.247,0-0.389-0.035
		c-0.6-0.6-0.352-4.903-0.352-5.856c0-1.869-0.071-3.951-0.318-5.785c-0.105-0.741-0.317-1.481-0.635-2.152
		c-1.518-3.387-2.54-7.02-3.846-10.478v0.035c-0.246-0.564-0.423-1.199-0.67-1.764c-0.035-0.07-0.317-0.776-0.317-0.812
		c0-0.812,2.61-1.234,3.21-1.234c0.177,0,0.812,0.035,0.883,0.282c0.246,0.812,2.609,8.89,2.786,9.066
		c0.494-1.341,2.717-7.902,2.752-8.961c0.247-0.423,0.6-0.635,1.059-0.635c0.458,0,2.081,0.035,2.398,0.212
		c0.282,0.141,0.317,0.458,0.317,0.74c0,0.812-0.423,1.94-0.705,2.717l0.035-0.07c-0.494,1.869-3.599,11.359-3.634,12.806
		c-0.035,1.658,0.035,3.281,0.035,4.939C87.432,42.457,87.468,47.891,87.115,48.313z"/>
</g>
<path fill="#3A3759" d="M37.341,74.195c0,1.186-0.051,2.371-0.103,3.555c-0.024,0.529-0.2,0.781-0.78,0.781
	c-0.756,0-1.94,0.152-1.94-0.881c0-0.277,0.075-0.555,0.075-0.832c0-0.455,0-0.934,0.025-1.387c0.075-2.168,0-4.336,0.126-6.504
	c0.101-1.764,0.15-3.529,0.15-5.318c0-1.135-0.051-2.27-0.051-3.402c0-0.276,0-0.58,0.051-0.832
	c0.126-0.631,0.756-0.656,1.285-0.731c0.757-0.101,1.538-0.15,2.295-0.15c4.36,0,5.017,2.949,5.017,6.578
	c0,1.992,0.252,5.244-2.042,6.076c-0.631,0.228-1.36,0.401-2.042,0.401c-0.705,0-1.388-0.125-2.093-0.125
	C37.24,72.355,37.341,73.289,37.341,74.195z M40.643,62.854c0-0.379,0-0.781-0.302-1.059h0.024c-0.529-0.431-1.36-0.556-2.018-0.556
	c-0.328,0-0.68,0.05-1.008,0.101c0.075,2.572,0.025,5.143,0.025,7.688h0.276c0.555,0,1.738,0.024,2.218-0.228
	c0.808-0.43,1.01-2.598,1.01-3.403C40.87,64.541,40.643,63.709,40.643,62.854z M52.439,78.254c-0.682-1.336-1.009-3.705-1.286-5.191
	c-0.706,0.15-1.588,0.252-2.294,0.252l-0.58,2.672v-0.025c-0.252,0.908-0.302,1.689-0.78,2.545
	c-0.808,0.076-1.588,0.076-2.396,0.076c0.076-1.563,0.58-3.1,0.883-4.639c0.604-3.176,1.209-6.326,1.991-9.477
	c0.378-1.515,1.083-4.084,1.134-5.572c0.404-0.025,0.781-0.125,1.187-0.125c0.176,0,0.353,0.025,0.529,0.076
	c0.704,0.201,0.729,0.854,0.832,1.461c0.882,4.967,1.359,10.109,2.746,14.973l-0.024-0.023c0.252,0.855,0.58,1.892,0.58,2.822v0.303
	c-0.604,0-1.186,0.052-1.79,0.052h-0.428L52.439,78.254z M49.943,67.314c-0.276,1.084-0.504,2.193-0.63,3.303l1.411-0.252
	c-0.149-1.285-0.604-2.623-0.604-3.959c-0.052,0.328-0.126,0.656-0.202,0.934L49.943,67.314z M63.427,63.482
	c-0.555-0.227-0.354-3.023-2.471-1.965c-0.63,0.277-0.934,1.033-0.934,1.713c0,3.479,7.135,6.328,6.579,10.865
	c-0.402,3.326-2.191,3.705-3.125,4.109h-0.024c-0.706,0.276-1.286,0.377-2.042,0.377c-1.235,0-2.521-0.832-3.303-1.738
	c-0.177-0.203-0.303-0.48-0.479-0.707c-0.403-0.555-0.958-1.312-0.958-2.016c0-0.201,0.051-0.404,0.177-0.58h-0.025
	c0.327-0.556,1.64-0.556,2.219-0.556c0.631,0,0.807,0.681,0.958,1.187v-0.025c0.328,0.705,0.706,1.234,1.563,1.234
	c0.907,0,1.688-0.402,1.688-1.388c0-1.512-1.285-2.696-2.243-3.729c-0.63-0.68-1.235-1.461-1.739-2.268h0.025
	c-0.58-0.808-1.313-1.64-1.664-2.572v0.024c-0.354-0.78-0.555-1.639-0.555-2.496c0-2.444,1.891-4.436,4.36-4.436
	c1.537,0,3.176,0.756,3.982,2.116l-0.025-0.024c0.378,0.556,0.808,1.388,0.808,2.065c0,1.084-0.907,0.959-1.688,0.959
	C64.157,63.635,63.78,63.609,63.427,63.482z M76.658,63.861c-0.253,0-0.479-0.051-0.682-0.176h0.025
	c-0.982-0.631-0.302-1.916-2.041-2.193h-0.229c-1.108,0-2.47,0.807-2.47,2.016c0,2.271,2.974,3.605,4.335,5.019
	c0.883,0.906,1.815,2.345,2.219,3.554c0.228,0.655,0.327,1.438,0.327,2.116c0,1.64-1.233,3.683-2.848,4.187
	c-0.553,0.174-1.284,0.225-1.864,0.225c-1.336,0-2.771-0.328-3.756-1.311h0.025c-0.706-0.683-1.235-2.092-1.235-3.076
	c0-0.73,0.933-0.654,1.463-0.654c0.428,0,0.831,0.051,1.26,0.076c0.126,0.377,0.102,0.68,0.178,1.033
	c0.177,0.68,1.437,1.26,2.065,1.26c0.883,0,1.715-0.705,1.715-1.613c0-0.504-0.177-0.957-0.354-1.412
	c-1.613-4.234-5.924-4.385-6.503-8.822c-0.025-0.102-0.025-0.227-0.025-0.328c0-2.848,2.495-5.166,5.293-5.166
	c0.883,0,1.639,0.177,2.42,0.554c1.715,0.832,2.598,2.547,2.571,4.387L76.658,63.861z"/>
</svg>
