<?xml version="1.0" encoding="utf-8"?>
<!-- Generator: Adobe Illustrator 16.0.0, SVG Export Plug-In . SVG Version: 6.00 Build 0)  -->
<!DOCTYPE svg PUBLIC "-//W3C//DTD SVG 1.1//EN" "http://www.w3.org/Graphics/SVG/1.1/DTD/svg11.dtd">
<svg version="1.1" id="Vrstva_1" xmlns="http://www.w3.org/2000/svg" xmlns:xlink="http://www.w3.org/1999/xlink" x="0px" y="0px"
	 width="108.313px" height="93.801px" viewBox="0 0 108.313 93.801" enable-background="new 0 0 108.313 93.801"
	 xml:space="preserve">
<polygon fill="#FF472D" points="81.234,0 27.078,0 0,46.901 27.078,93.801 81.234,93.801 108.312,46.901 "/>
<path fill="#3A3759" d="M38.744,17.176c0,0.781,0.107,1.562,0.107,2.342c0,1.065-0.498,1.384-1.491,1.384
	c-1.101,0-2.2-0.106-3.301-0.106c-0.426,0-0.888,0.036-1.313,0.071v7.276c0,0.816,0.035,1.597,0.071,2.378
	c0.78,0,1.562-0.106,2.343-0.106c0.532,0,1.1,0.142,1.597,0.319c-0.071,0.674,0.036,1.313,0.036,1.987
	c0,0.497-0.107,0.923-0.249,1.384c-0.993,0.178-1.987,0.107-2.981,0.107c-0.213,0-0.461,0-0.709,0.035v9.689
	c0,0.354-0.143,0.709-0.32,0.993c-0.709,0.071-1.42,0.143-2.129,0.143c-0.462,0-0.923-0.036-1.35-0.106
	c-0.248-1.563-0.213-3.088-0.213-4.686c0-2.236-0.142-4.472-0.142-6.708c0-2.697,0.071-5.43,0.071-8.127
	c0-2.626-0.284-5.785,0.319-8.447c2.059-0.249,4.152-0.142,6.211-0.249c0.745-0.035,1.491-0.213,2.236-0.213
	c0.319,0,0.71,0.071,0.993,0.249L38.744,17.176z M46.234,16.502c0.105,0.142,0.141,0.319,0.141,0.497
	c0,0.497-0.248,0.923-0.283,1.384l-0.143,1.526c-0.248,2.91-0.461,5.856-0.461,8.802c0,2.911,0.106,8.944,1.526,11.287
	c0.248,0.426,0.923,0.745,1.384,0.745c2.875,0,3.372-4.614,3.372-6.708c0-5.076-0.391-10.115-0.391-15.191
	c0-0.426-0.106-0.887-0.106-1.313c0-0.674,0.391-1.313,1.136-1.313c0.604,0,1.278,0.355,1.882,0.142
	c1.135,0.355,1.064,3.017,1.064,3.975c0,1.171-0.107,2.378-0.107,3.549c0,4.046,0.568,8.057,0.568,12.103
	c0,4.472-1.136,9.121-6.53,9.121c-3.691,0-6.247-2.769-6.992-6.211c-0.497-2.308-0.497-4.756-0.497-7.099v-4.011
	c0-1.526,0-10.683,0.533-11.428c0.213-0.319,0.674-0.355,1.029-0.355c0.105,0,0.567,0,0.674,0.071c0.355-0.036,0.71-0.106,1.1-0.106
	c0.427,0,0.816,0.106,1.102,0.497V16.502z M66.287,40.743c0.568,0,2.094,0.142,2.662,0c0.105,1.632,0.07,2.2,0.105,3.585
	c-3.301,0.531-6.672,0.283-9.973,0.177c-0.319-7.631-0.284-15.297-0.284-22.928c0-1.633-0.284-4.437,1.811-4.437
	c1.455,0,2.378,0.142,2.378,1.811c0,3.514-0.461,7.027-0.461,10.541c0,3.727,0.248,7.56,0.567,11.286
	C63.377,40.565,65.79,40.743,66.287,40.743z M78.922,40.814c0.604,0,1.136-0.178,1.703-0.178c1.029,0,1.242,0.674,1.242,1.562
	c0,0.745-0.177,1.49-0.177,2.235c-0.78,0.391-1.42,0.32-2.235,0.32c-1.456,0-3.018,0.354-4.543,0.354
	c-0.781,0-1.598-0.071-2.344-0.284c-0.639-0.639-0.639-1.952-0.639-2.804c0-1.881,0.143-3.762,0.143-5.644
	c0-2.413-0.106-4.791-0.106-7.204c0-1.243,0-2.414,0.142-3.621c0.071-0.745,0.178-1.455,0.178-2.201c0-0.745-0.035-1.455-0.035-2.2
	c0-1.029,0.07-2.094,0.177-3.123c0.427-0.462,1.171-0.639,1.774-0.639c1.313,0,1.917,0.674,1.917,1.952
	c0,0.639-0.142,1.207-0.178,1.81c-0.248,3.229-0.248,6.53-0.248,9.76c0,2.271-0.071,4.72,0.284,6.992
	c0.142,0.923,0.213,1.882,0.318,2.804C77.183,40.707,78.035,40.814,78.922,40.814z"/>
<path fill="#3A3759" d="M35.385,70.613c0,1.191-0.051,2.383-0.102,3.574c-0.025,0.531-0.203,0.785-0.786,0.785
	c-0.761,0-1.952,0.152-1.952-0.887c0-0.279,0.076-0.558,0.076-0.837c0-0.456,0-0.938,0.025-1.394c0.076-2.18,0-4.359,0.127-6.539
	c0.102-1.774,0.152-3.549,0.152-5.348c0-1.141-0.051-2.281-0.051-3.422c0-0.278,0-0.583,0.051-0.836
	c0.127-0.634,0.76-0.659,1.293-0.735c0.76-0.102,1.546-0.152,2.307-0.152c4.384,0,5.043,2.966,5.043,6.615
	c0,2.003,0.254,5.272-2.053,6.108c-0.634,0.229-1.369,0.405-2.053,0.405c-0.71,0-1.395-0.127-2.104-0.127
	C35.283,68.763,35.385,69.701,35.385,70.613z M38.705,59.208c0-0.38,0-0.785-0.305-1.064h0.025
	c-0.532-0.431-1.369-0.558-2.027-0.558c-0.33,0-0.685,0.051-1.014,0.102c0.076,2.585,0.025,5.17,0.025,7.73h0.278
	c0.558,0,1.749,0.025,2.23-0.229c0.811-0.431,1.014-2.61,1.014-3.422C38.932,60.906,38.705,60.07,38.705,59.208z M51.076,74.693
	c-0.685-1.343-1.014-3.725-1.293-5.221c-0.71,0.152-1.597,0.254-2.307,0.254l-0.583,2.687v-0.025
	c-0.253,0.912-0.304,1.698-0.786,2.56c-0.811,0.076-1.596,0.076-2.407,0.076c0.076-1.571,0.583-3.117,0.888-4.664
	c0.607-3.193,1.217-6.361,2.002-9.529c0.38-1.521,1.09-4.105,1.141-5.602c0.405-0.024,0.785-0.126,1.191-0.126
	c0.177,0,0.354,0.025,0.531,0.076c0.71,0.202,0.735,0.861,0.837,1.47c0.888,4.993,1.368,10.163,2.763,15.055l-0.025-0.025
	c0.254,0.861,0.583,1.901,0.583,2.839v0.304c-0.608,0-1.191,0.051-1.8,0.051H51.38L51.076,74.693z M48.566,63.694
	c-0.279,1.09-0.507,2.205-0.633,3.32l1.418-0.254c-0.151-1.292-0.607-2.636-0.607-3.979c-0.051,0.329-0.127,0.659-0.203,0.938
	L48.566,63.694z M62.636,59.842c-0.559-0.229-0.355-3.041-2.484-1.977c-0.633,0.278-0.938,1.039-0.938,1.723
	c0,3.498,7.172,6.362,6.615,10.924c-0.406,3.346-2.205,3.727-3.143,4.132h-0.025c-0.71,0.278-1.293,0.38-2.053,0.38
	c-1.242,0-2.535-0.836-3.32-1.749c-0.178-0.202-0.305-0.481-0.482-0.71c-0.405-0.557-0.963-1.317-0.963-2.027
	c0-0.202,0.051-0.405,0.178-0.582h-0.025c0.329-0.559,1.647-0.559,2.23-0.559c0.633,0,0.811,0.685,0.963,1.191v-0.025
	c0.33,0.71,0.709,1.242,1.571,1.242c0.913,0,1.698-0.405,1.698-1.395c0-1.521-1.293-2.711-2.256-3.75
	c-0.634-0.685-1.242-1.471-1.748-2.281h0.024c-0.583-0.812-1.317-1.647-1.673-2.586v0.025c-0.354-0.785-0.557-1.646-0.557-2.509
	c0-2.458,1.9-4.461,4.385-4.461c1.545,0,3.193,0.761,4.004,2.13l-0.025-0.025c0.38,0.557,0.811,1.394,0.811,2.078
	c0,1.09-0.912,0.963-1.697,0.963C63.371,59.994,62.991,59.969,62.636,59.842z M76.453,60.222c-0.254,0-0.482-0.051-0.686-0.178
	h0.025c-0.988-0.634-0.304-1.927-2.053-2.205h-0.228c-1.115,0-2.483,0.811-2.483,2.027c0,2.281,2.99,3.624,4.359,5.044
	c0.887,0.912,1.824,2.356,2.229,3.573c0.229,0.659,0.329,1.445,0.329,2.129c0,1.647-1.241,3.7-2.863,4.207
	c-0.558,0.178-1.293,0.229-1.875,0.229c-1.344,0-2.789-0.33-3.777-1.318h0.025c-0.709-0.684-1.242-2.104-1.242-3.092
	c0-0.734,0.938-0.659,1.471-0.659c0.431,0,0.836,0.051,1.268,0.076c0.127,0.38,0.102,0.685,0.177,1.039
	c0.178,0.685,1.444,1.268,2.079,1.268c0.887,0,1.723-0.71,1.723-1.622c0-0.507-0.178-0.963-0.354-1.42
	c-1.622-4.258-5.956-4.409-6.539-8.87c-0.025-0.102-0.025-0.228-0.025-0.329c0-2.864,2.509-5.196,5.322-5.196
	c0.888,0,1.647,0.178,2.433,0.558c1.725,0.836,2.611,2.561,2.586,4.41L76.453,60.222z"/>
</svg>
