<?xml version="1.0" encoding="utf-8"?>
<!-- Generator: Adobe Illustrator 16.0.0, SVG Export Plug-In . SVG Version: 6.00 Build 0)  -->
<!DOCTYPE svg PUBLIC "-//W3C//DTD SVG 1.1//EN" "http://www.w3.org/Graphics/SVG/1.1/DTD/svg11.dtd">
<svg version="1.1" id="Vrstva_1" xmlns="http://www.w3.org/2000/svg" xmlns:xlink="http://www.w3.org/1999/xlink" x="0px" y="0px"
	 width="30.96px" height="30.96px" viewBox="63.073 47.047 30.96 30.96" enable-background="new 63.073 47.047 30.96 30.96"
	 xml:space="preserve">
<path fill="#AC9696" d="M82.033,78.007h-6.96c-6.601,0-12-5.399-12-12v-6.96c0-6.6,5.399-12,12-12h6.96c6.6,0,12,5.4,12,12v6.96
	C94.033,72.607,88.633,78.007,82.033,78.007"/>
<path fill="#3A3759" d="M78.535,66.947c-0.635,0.857-1.381,1.678-2.127,2.424c-1.416,1.418-2.871,1.902-4.476,0.299
	c-0.634-0.635-1.044-1.715-1.044-2.611c1.23-1.455,2.5-3.021,3.916-4.215c-0.559,0.41-4.141-3.395-4.736-3.992
	c0.372-0.893,1.268-2.012,1.977-2.723c0.597-0.597,1.828-1.752,2.761-1.119c1.379,0.935,2.647,2.203,3.841,3.396
	c0.971-1.118,2.127-2.276,3.17-3.319c1.567-1.566,1.94-0.449,3.209,0.521c0.41,0.335,0.932,0.561,1.305,0.934
	c1.455,1.455-2.387,4.475-3.394,5.481l-0.299,0.3l1.828,1.827c0.858,0.858,1.753,1.678,2.723,2.424
	c-0.896,0.896-1.641,1.865-2.536,2.761C82.302,71.684,80.25,68.514,78.535,66.947"/>
</svg>
